<svg viewBox="0 0 438 703" xmlns:xlink="http://www.w3.org/1999/xlink" xmlns="http://www.w3.org/2000/svg" fill-rule="evenodd" clip-rule="evenodd" stroke-linecap="round" stroke-linejoin="round" stroke-miterlimit="1.5"><defs><pattern xlink:href="#prefix__a" preserveAspectRatio="xMidYMid" id="prefix__g" patternTransform="matrix(.2 0 0 .2 1180.003 543.262)" x="0" y="0"/><pattern patternUnits="userSpaceOnUse" preserveAspectRatio="xMidYMid" width="377.875" height="195.949" patternTransform="matrix(.2 0 0 .2 1180.003 543.262)" id="prefix__a" fill="#c40000"><path d="M0 0v2.214c4.459 0 7.992 3.532 7.992 7.992a7.93 7.93 0 01-2.54 5.854A93.444 93.444 0 000 15.9v8.515c36.118.004 66.834 22.876 78.527 54.894-24.22 4.194-45.243 17.766-59.217 36.83A92.264 92.264 0 000 114.1v8.514c36.057 0 66.73 22.754 78.467 54.707a92.318 92.318 0 00-10.222 2.38C57.609 152.387 31.038 132.98 0 132.98v8.531c27.393 0 50.756 16.96 60.198 40.965a92.74 92.74 0 00-9.457 4.384C42.931 166.435 23.134 151.883 0 151.883v8.531c20.113 0 37.142 12.887 43.306 30.876-2.202 1.453-4.316 3.03-6.383 4.659h15.179c12.45-7.227 26.915-11.379 42.37-11.379 15.446 0 29.897 4.157 42.342 11.379h15.228c-11.868-9.369-26.05-15.93-41.56-18.627 11.75-31.915 42.41-54.701 78.456-54.701 36.038 0 66.695 22.78 78.45 54.685-15.549 2.687-29.768 9.254-41.665 18.643h15.234c12.444-7.223 26.895-11.379 42.342-11.379 15.458 0 29.923 4.15 42.375 11.379h15.168c-2.038-1.608-4.12-3.163-6.29-4.599 6.147-18.02 23.188-30.936 43.323-30.936v-8.531c-23.153 0-42.966 14.575-50.763 35.028a92.617 92.617 0 00-9.451-4.4c9.433-24.024 32.808-40.999 60.214-40.999v-8.531c-31.048 0-57.627 19.419-68.255 46.748a92.304 92.304 0 00-10.217-2.39c11.733-31.962 42.41-54.724 78.472-54.724v-8.514c-6.655 0-13.145.715-19.403 2.06-13.95-19.049-34.939-32.618-59.124-36.835 11.693-32.02 42.41-54.906 78.527-54.91V15.9c-1.83 0-3.648.054-5.452.159a7.93 7.93 0 01-2.54-5.854c0-4.46 3.533-7.992 7.992-7.992V0H364.95c-2.232 2.816-3.58 6.36-3.58 10.206 0 2.46.551 4.806 1.531 6.912a91.58 91.58 0 00-4.56.864 93.974 93.974 0 00-7.33-8.784A26.82 26.82 0 01353.013 0h-9c-.202.669-.409 1.337-.572 2.021-.824-.698-1.686-1.351-2.534-2.021h-15.167a84.93 84.93 0 0123.65 20.4 91.578 91.578 0 00-11.203 4.472C324.993 9.862 305.766.296 284.318 0h-2.032c-21.42.294-40.627 9.832-53.826 24.806a91.568 91.568 0 00-11.208-4.456A84.906 84.906 0 01240.863 0h-15.195c-6.557 5.185-12.424 11.208-17.388 17.944a92.256 92.256 0 00-19.342-2.044c-6.67 0-13.173.715-19.442 2.066C164.53 11.22 158.66 5.19 152.098 0h-15.19a84.91 84.91 0 0123.633 20.373 91.592 91.592 0 00-11.203 4.472C136.144 9.849 116.928.295 95.491 0h-2.038C72.02.296 52.803 9.847 39.605 24.84a91.476 91.476 0 00-11.197-4.467A84.917 84.917 0 0152.041 0H36.862c-.817.646-1.65 1.272-2.445 1.944-.159-.659-.361-1.3-.556-1.944h-9.005a26.808 26.808 0 012.005 9.087 93.937 93.937 0 00-7.425 8.873 91.564 91.564 0 00-4.466-.842 16.337 16.337 0 001.536-6.912c0-3.845-1.348-7.39-3.58-10.206zm94.472 8.592c18.61 0 35.351 7.853 47.111 20.427a92.484 92.484 0 00-10.139 7.061c-9.478-9.472-22.55-15.35-36.972-15.35-14.416 0-27.486 5.87-36.967 15.334a92.338 92.338 0 00-10.14-7.056C59.13 16.44 75.867 8.592 94.472 8.592zm188.827 0c18.626 0 35.383 7.866 47.145 20.46a92.407 92.407 0 00-10.14 7.067c-9.48-9.493-22.564-15.388-37.005-15.388-14.398 0-27.45 5.857-36.928 15.3a92.47 92.47 0 00-10.15-7.056c11.762-12.55 28.49-20.383 47.078-20.383zm-94.361 15.823c36.121 0 66.843 22.834 78.532 54.878a92.382 92.382 0 00-10.227 2.357c-10.596-27.394-37.21-46.87-68.305-46.87-31.105 0-57.727 19.49-68.316 46.897A92.291 92.291 0 00110.4 79.31c11.685-32.052 42.41-54.894 78.538-54.894zm-94.466 4.93A43.579 43.579 0 01125 41.741a92.803 92.803 0 00-7.457 8.113c-5.932-5.896-14.082-9.561-23.071-9.561-8.98 0-17.127 3.66-23.06 9.544a92.652 92.652 0 00-7.463-8.107c7.876-7.666 18.635-12.387 30.523-12.387zm188.827 0c11.916 0 22.695 4.743 30.573 12.441a92.649 92.649 0 00-7.458 8.113c-5.935-5.922-14.103-9.605-23.115-9.605-8.957 0-17.08 3.642-23.01 9.5a92.817 92.817 0 00-7.469-8.107 43.594 43.594 0 0130.48-12.343zm-94.361 13.967c27.444 0 50.845 17.02 60.253 41.097a92.661 92.661 0 00-9.462 4.368c-7.78-20.488-27.613-35.095-50.791-35.095-23.195 0-43.04 14.628-50.808 35.139a92.67 92.67 0 00-9.462-4.379c9.4-24.094 32.813-41.13 60.27-41.13zm-94.466 5.6a24.062 24.062 0 0117.9 7.92 92.093 92.093 0 00-5.921 10.179c-2.24-4.367-6.777-7.397-11.98-7.397-5.196 0-9.737 3.022-11.984 7.38a91.892 91.892 0 00-5.91-10.178 24.088 24.088 0 0117.895-7.903zm188.827 0c7.15 0 13.535 3.083 17.95 7.981a91.95 91.95 0 00-5.921 10.217c-2.222-4.42-6.787-7.496-12.029-7.496-5.156 0-9.664 2.977-11.93 7.281a92.113 92.113 0 00-5.909-10.134 24.084 24.084 0 0117.84-7.848zm-94.361 13.302c20.152 0 37.205 12.937 43.339 30.98a93.737 93.737 0 00-8.9 6.636c-3.703-15.59-17.744-27.251-34.44-27.251-16.722 0-30.787 11.7-34.46 27.329a93.677 93.677 0 00-8.9-6.66c6.117-18.072 23.188-31.034 43.36-31.034zm-94.466 6.02c2.73 0 4.852 2.137 4.852 4.868 0 2.605-1.93 4.652-4.478 4.836-.125 0-.249-.004-.374-.004-.126 0-.25.004-.375.004-2.55-.184-4.494-2.231-4.494-4.836 0-2.73 2.138-4.869 4.869-4.869zm188.827 0c2.731 0 4.852 2.137 4.852 4.868 0 2.605-1.93 4.652-4.477 4.836-.125 0-.25-.004-.375-.004s-.25.004-.374.004c-2.548-.186-4.495-2.233-4.495-4.836 0-2.73 2.138-4.869 4.87-4.869zm-94.361 12.882c14.552 0 26.33 11.436 26.866 25.852a93.964 93.964 0 00-7.656 9.154 91.73 91.73 0 00-4.433-.826 16.327 16.327 0 001.729-7.309c0-9.067-7.44-16.506-16.506-16.506-9.067 0-16.507 7.44-16.507 16.506 0 2.618.619 5.102 1.719 7.309-1.52.245-3.028.529-4.522.848a93.922 93.922 0 00-7.562-9.066c.48-14.468 12.282-25.962 26.872-25.962zm-94.466 5.452c26.848 0 50.723 12.495 66.2 31.972a91.501 91.501 0 00-11.213 4.444c-13.407-15.314-33.073-25.01-54.987-25.01-21.916 0-41.587 9.7-55 25.016a91.494 91.494 0 00-11.196-4.45c15.476-19.476 39.348-31.972 66.196-31.972zm188.827 0c26.86 0 50.746 12.504 66.223 31.994a91.511 91.511 0 00-11.197 4.466c-13.408-15.338-33.091-25.054-55.026-25.054-21.895 0-41.55 9.68-54.96 24.972a91.535 91.535 0 00-11.213-4.434c15.476-19.46 39.338-31.944 66.173-31.944zm-94.361 13.428c4.459 0 7.991 3.532 7.991 7.991a7.92 7.92 0 01-3.007 6.257 93.19 93.19 0 00-4.984-.132c-1.672 0-3.335.049-4.985.137-1.837-1.451-3.007-3.7-3.007-6.262 0-4.459 3.533-7.992 7.992-7.992zm-94.466 6.598c18.67 0 35.461 7.903 47.227 20.549a92.418 92.418 0 00-10.15 7.044c-9.487-9.534-22.601-15.455-37.077-15.455-14.479 0-27.597 5.924-37.088 15.46a92.477 92.477 0 00-10.145-7.044c11.77-12.648 28.561-20.554 47.233-20.554zm188.827 0c18.692 0 35.504 7.92 47.272 20.593a92.486 92.486 0 00-10.145 7.055c-9.49-9.564-22.624-15.51-37.127-15.51-14.448 0-27.541 5.899-37.027 15.4a92.42 92.42 0 00-10.162-7.034c11.768-12.62 28.541-20.504 47.19-20.504zM94.472 127.346a43.582 43.582 0 0130.627 12.492 92.631 92.631 0 00-7.473 8.101c-5.939-5.944-14.123-9.644-23.154-9.644-9.034 0-17.223 3.703-23.165 9.65a92.755 92.755 0 00-7.474-8.102 43.603 43.603 0 0130.639-12.497zm188.827 0a43.58 43.58 0 0130.688 12.552 92.776 92.776 0 00-7.468 8.107c-5.943-5.982-14.155-9.71-23.22-9.71-8.998 0-17.156 3.673-23.093 9.578a92.734 92.734 0 00-7.48-8.09c7.881-7.697 18.659-12.437 30.573-12.437zM94.472 146.915c7.16 0 13.556 3.086 17.97 7.997a91.986 91.986 0 00-5.947 10.194c-2.223-4.416-6.784-7.49-12.023-7.49-5.24 0-9.813 3.073-12.04 7.49a92.087 92.087 0 00-5.948-10.189 24.092 24.092 0 0117.988-8.002zm188.827 0a24.063 24.063 0 0118.043 8.08 92.106 92.106 0 00-5.96 10.232c-2.199-4.48-6.796-7.611-12.083-7.611-5.192 0-9.73 3.017-11.979 7.37a91.979 91.979 0 00-5.932-10.151 24.09 24.09 0 0117.911-7.92zm-188.827 19.32c2.73 0 4.852 2.138 4.852 4.87 0 2.604-1.93 4.65-4.478 4.835-.125 0-.249-.004-.374-.004-.126 0-.25.004-.375.004-2.55-.184-4.494-2.231-4.494-4.836 0-2.73 2.138-4.869 4.869-4.869zm188.827 0c2.731 0 4.852 2.138 4.852 4.87 0 2.604-1.93 4.65-4.477 4.835-.125 0-.25-.004-.375-.004s-.25.004-.374.004c-2.548-.186-4.495-2.233-4.495-4.836 0-2.73 2.138-4.869 4.87-4.869zM0 170.78v8.537c11.258 0 20.829 6.86 24.845 16.633h9C29.43 181.419 15.94 170.779 0 170.779zm377.875 0c-15.94 0-29.436 10.64-33.85 25.17h9.006c4.015-9.775 13.585-16.633 24.844-16.633zM0 189.681v6.268h12.904C9.872 192.14 5.208 189.68 0 189.68zm377.875 0c-5.208 0-9.871 2.46-12.904 6.268h12.904z" stroke-width="9.005" paint-order="markers fill stroke"/></pattern><pattern xlink:href="#prefix__b" preserveAspectRatio="xMidYMid" id="prefix__c" patternTransform="matrix(.2 0 0 .2 1180.003 543.262)" x="0" y="0"/><pattern patternUnits="userSpaceOnUse" preserveAspectRatio="xMidYMid" width="377.875" height="195.949" patternTransform="matrix(.2 0 0 .2 1180.003 543.262)" id="prefix__b" fill="#c40000"><path d="M0 0v2.214c4.459 0 7.992 3.532 7.992 7.992a7.93 7.93 0 01-2.54 5.854A93.444 93.444 0 000 15.9v8.515c36.118.004 66.834 22.876 78.527 54.894-24.22 4.194-45.243 17.766-59.217 36.83A92.264 92.264 0 000 114.1v8.514c36.057 0 66.73 22.754 78.467 54.707a92.318 92.318 0 00-10.222 2.38C57.609 152.387 31.038 132.98 0 132.98v8.531c27.393 0 50.756 16.96 60.198 40.965a92.74 92.74 0 00-9.457 4.384C42.931 166.435 23.134 151.883 0 151.883v8.531c20.113 0 37.142 12.887 43.306 30.876-2.202 1.453-4.316 3.03-6.383 4.659h15.179c12.45-7.227 26.915-11.379 42.37-11.379 15.446 0 29.897 4.157 42.342 11.379h15.228c-11.868-9.369-26.05-15.93-41.56-18.627 11.75-31.915 42.41-54.701 78.456-54.701 36.038 0 66.695 22.78 78.45 54.685-15.549 2.687-29.768 9.254-41.665 18.643h15.234c12.444-7.223 26.895-11.379 42.342-11.379 15.458 0 29.923 4.15 42.375 11.379h15.168c-2.038-1.608-4.12-3.163-6.29-4.599 6.147-18.02 23.188-30.936 43.323-30.936v-8.531c-23.153 0-42.966 14.575-50.763 35.028a92.617 92.617 0 00-9.451-4.4c9.433-24.024 32.808-40.999 60.214-40.999v-8.531c-31.048 0-57.627 19.419-68.255 46.748a92.304 92.304 0 00-10.217-2.39c11.733-31.962 42.41-54.724 78.472-54.724v-8.514c-6.655 0-13.145.715-19.403 2.06-13.95-19.049-34.939-32.618-59.124-36.835 11.693-32.02 42.41-54.906 78.527-54.91V15.9c-1.83 0-3.648.054-5.452.159a7.93 7.93 0 01-2.54-5.854c0-4.46 3.533-7.992 7.992-7.992V0H364.95c-2.232 2.816-3.58 6.36-3.58 10.206 0 2.46.551 4.806 1.531 6.912a91.58 91.58 0 00-4.56.864 93.974 93.974 0 00-7.33-8.784A26.82 26.82 0 01353.013 0h-9c-.202.669-.409 1.337-.572 2.021-.824-.698-1.686-1.351-2.534-2.021h-15.167a84.93 84.93 0 0123.65 20.4 91.578 91.578 0 00-11.203 4.472C324.993 9.862 305.766.296 284.318 0h-2.032c-21.42.294-40.627 9.832-53.826 24.806a91.568 91.568 0 00-11.208-4.456A84.906 84.906 0 01240.863 0h-15.195c-6.557 5.185-12.424 11.208-17.388 17.944a92.256 92.256 0 00-19.342-2.044c-6.67 0-13.173.715-19.442 2.066C164.53 11.22 158.66 5.19 152.098 0h-15.19a84.91 84.91 0 0123.633 20.373 91.592 91.592 0 00-11.203 4.472C136.144 9.849 116.928.295 95.491 0h-2.038C72.02.296 52.803 9.847 39.605 24.84a91.476 91.476 0 00-11.197-4.467A84.917 84.917 0 0152.041 0H36.862c-.817.646-1.65 1.272-2.445 1.944-.159-.659-.361-1.3-.556-1.944h-9.005a26.808 26.808 0 012.005 9.087 93.937 93.937 0 00-7.425 8.873 91.564 91.564 0 00-4.466-.842 16.337 16.337 0 001.536-6.912c0-3.845-1.348-7.39-3.58-10.206zm94.472 8.592c18.61 0 35.351 7.853 47.111 20.427a92.484 92.484 0 00-10.139 7.061c-9.478-9.472-22.55-15.35-36.972-15.35-14.416 0-27.486 5.87-36.967 15.334a92.338 92.338 0 00-10.14-7.056C59.13 16.44 75.867 8.592 94.472 8.592zm188.827 0c18.626 0 35.383 7.866 47.145 20.46a92.407 92.407 0 00-10.14 7.067c-9.48-9.493-22.564-15.388-37.005-15.388-14.398 0-27.45 5.857-36.928 15.3a92.47 92.47 0 00-10.15-7.056c11.762-12.55 28.49-20.383 47.078-20.383zm-94.361 15.823c36.121 0 66.843 22.834 78.532 54.878a92.382 92.382 0 00-10.227 2.357c-10.596-27.394-37.21-46.87-68.305-46.87-31.105 0-57.727 19.49-68.316 46.897A92.291 92.291 0 00110.4 79.31c11.685-32.052 42.41-54.894 78.538-54.894zm-94.466 4.93A43.579 43.579 0 01125 41.741a92.803 92.803 0 00-7.457 8.113c-5.932-5.896-14.082-9.561-23.071-9.561-8.98 0-17.127 3.66-23.06 9.544a92.652 92.652 0 00-7.463-8.107c7.876-7.666 18.635-12.387 30.523-12.387zm188.827 0c11.916 0 22.695 4.743 30.573 12.441a92.649 92.649 0 00-7.458 8.113c-5.935-5.922-14.103-9.605-23.115-9.605-8.957 0-17.08 3.642-23.01 9.5a92.817 92.817 0 00-7.469-8.107 43.594 43.594 0 0130.48-12.343zm-94.361 13.967c27.444 0 50.845 17.02 60.253 41.097a92.661 92.661 0 00-9.462 4.368c-7.78-20.488-27.613-35.095-50.791-35.095-23.195 0-43.04 14.628-50.808 35.139a92.67 92.67 0 00-9.462-4.379c9.4-24.094 32.813-41.13 60.27-41.13zm-94.466 5.6a24.062 24.062 0 0117.9 7.92 92.093 92.093 0 00-5.921 10.179c-2.24-4.367-6.777-7.397-11.98-7.397-5.196 0-9.737 3.022-11.984 7.38a91.892 91.892 0 00-5.91-10.178 24.088 24.088 0 0117.895-7.903zm188.827 0c7.15 0 13.535 3.083 17.95 7.981a91.95 91.95 0 00-5.921 10.217c-2.222-4.42-6.787-7.496-12.029-7.496-5.156 0-9.664 2.977-11.93 7.281a92.113 92.113 0 00-5.909-10.134 24.084 24.084 0 0117.84-7.848zm-94.361 13.302c20.152 0 37.205 12.937 43.339 30.98a93.737 93.737 0 00-8.9 6.636c-3.703-15.59-17.744-27.251-34.44-27.251-16.722 0-30.787 11.7-34.46 27.329a93.677 93.677 0 00-8.9-6.66c6.117-18.072 23.188-31.034 43.36-31.034zm-94.466 6.02c2.73 0 4.852 2.137 4.852 4.868 0 2.605-1.93 4.652-4.478 4.836-.125 0-.249-.004-.374-.004-.126 0-.25.004-.375.004-2.55-.184-4.494-2.231-4.494-4.836 0-2.73 2.138-4.869 4.869-4.869zm188.827 0c2.731 0 4.852 2.137 4.852 4.868 0 2.605-1.93 4.652-4.477 4.836-.125 0-.25-.004-.375-.004s-.25.004-.374.004c-2.548-.186-4.495-2.233-4.495-4.836 0-2.73 2.138-4.869 4.87-4.869zm-94.361 12.882c14.552 0 26.33 11.436 26.866 25.852a93.964 93.964 0 00-7.656 9.154 91.73 91.73 0 00-4.433-.826 16.327 16.327 0 001.729-7.309c0-9.067-7.44-16.506-16.506-16.506-9.067 0-16.507 7.44-16.507 16.506 0 2.618.619 5.102 1.719 7.309-1.52.245-3.028.529-4.522.848a93.922 93.922 0 00-7.562-9.066c.48-14.468 12.282-25.962 26.872-25.962zm-94.466 5.452c26.848 0 50.723 12.495 66.2 31.972a91.501 91.501 0 00-11.213 4.444c-13.407-15.314-33.073-25.01-54.987-25.01-21.916 0-41.587 9.7-55 25.016a91.494 91.494 0 00-11.196-4.45c15.476-19.476 39.348-31.972 66.196-31.972zm188.827 0c26.86 0 50.746 12.504 66.223 31.994a91.511 91.511 0 00-11.197 4.466c-13.408-15.338-33.091-25.054-55.026-25.054-21.895 0-41.55 9.68-54.96 24.972a91.535 91.535 0 00-11.213-4.434c15.476-19.46 39.338-31.944 66.173-31.944zm-94.361 13.428c4.459 0 7.991 3.532 7.991 7.991a7.92 7.92 0 01-3.007 6.257 93.19 93.19 0 00-4.984-.132c-1.672 0-3.335.049-4.985.137-1.837-1.451-3.007-3.7-3.007-6.262 0-4.459 3.533-7.992 7.992-7.992zm-94.466 6.598c18.67 0 35.461 7.903 47.227 20.549a92.418 92.418 0 00-10.15 7.044c-9.487-9.534-22.601-15.455-37.077-15.455-14.479 0-27.597 5.924-37.088 15.46a92.477 92.477 0 00-10.145-7.044c11.77-12.648 28.561-20.554 47.233-20.554zm188.827 0c18.692 0 35.504 7.92 47.272 20.593a92.486 92.486 0 00-10.145 7.055c-9.49-9.564-22.624-15.51-37.127-15.51-14.448 0-27.541 5.899-37.027 15.4a92.42 92.42 0 00-10.162-7.034c11.768-12.62 28.541-20.504 47.19-20.504zM94.472 127.346a43.582 43.582 0 0130.627 12.492 92.631 92.631 0 00-7.473 8.101c-5.939-5.944-14.123-9.644-23.154-9.644-9.034 0-17.223 3.703-23.165 9.65a92.755 92.755 0 00-7.474-8.102 43.603 43.603 0 0130.639-12.497zm188.827 0a43.58 43.58 0 0130.688 12.552 92.776 92.776 0 00-7.468 8.107c-5.943-5.982-14.155-9.71-23.22-9.71-8.998 0-17.156 3.673-23.093 9.578a92.734 92.734 0 00-7.48-8.09c7.881-7.697 18.659-12.437 30.573-12.437zM94.472 146.915c7.16 0 13.556 3.086 17.97 7.997a91.986 91.986 0 00-5.947 10.194c-2.223-4.416-6.784-7.49-12.023-7.49-5.24 0-9.813 3.073-12.04 7.49a92.087 92.087 0 00-5.948-10.189 24.092 24.092 0 0117.988-8.002zm188.827 0a24.063 24.063 0 0118.043 8.08 92.106 92.106 0 00-5.96 10.232c-2.199-4.48-6.796-7.611-12.083-7.611-5.192 0-9.73 3.017-11.979 7.37a91.979 91.979 0 00-5.932-10.151 24.09 24.09 0 0117.911-7.92zm-188.827 19.32c2.73 0 4.852 2.138 4.852 4.87 0 2.604-1.93 4.65-4.478 4.835-.125 0-.249-.004-.374-.004-.126 0-.25.004-.375.004-2.55-.184-4.494-2.231-4.494-4.836 0-2.73 2.138-4.869 4.869-4.869zm188.827 0c2.731 0 4.852 2.138 4.852 4.87 0 2.604-1.93 4.65-4.477 4.835-.125 0-.25-.004-.375-.004s-.25.004-.374.004c-2.548-.186-4.495-2.233-4.495-4.836 0-2.73 2.138-4.869 4.87-4.869zM0 170.78v8.537c11.258 0 20.829 6.86 24.845 16.633h9C29.43 181.419 15.94 170.779 0 170.779zm377.875 0c-15.94 0-29.436 10.64-33.85 25.17h9.006c4.015-9.775 13.585-16.633 24.844-16.633zM0 189.681v6.268h12.904C9.872 192.14 5.208 189.68 0 189.68zm377.875 0c-5.208 0-9.871 2.46-12.904 6.268h12.904z" stroke-width="9.005" paint-order="markers fill stroke"/></pattern><pattern xlink:href="#prefix__d" preserveAspectRatio="xMidYMid" id="prefix__f" patternTransform="matrix(.2 0 0 .2 1180.003 543.262)" x="0" y="0"/><pattern patternUnits="userSpaceOnUse" preserveAspectRatio="xMidYMid" width="377.875" height="195.949" patternTransform="matrix(.2 0 0 .2 1180.003 543.262)" id="prefix__d" fill="#c40000"><path d="M0 0v2.214c4.459 0 7.992 3.532 7.992 7.992a7.93 7.93 0 01-2.54 5.854A93.444 93.444 0 000 15.9v8.515c36.118.004 66.834 22.876 78.527 54.894-24.22 4.194-45.243 17.766-59.217 36.83A92.264 92.264 0 000 114.1v8.514c36.057 0 66.73 22.754 78.467 54.707a92.318 92.318 0 00-10.222 2.38C57.609 152.387 31.038 132.98 0 132.98v8.531c27.393 0 50.756 16.96 60.198 40.965a92.74 92.74 0 00-9.457 4.384C42.931 166.435 23.134 151.883 0 151.883v8.531c20.113 0 37.142 12.887 43.306 30.876-2.202 1.453-4.316 3.03-6.383 4.659h15.179c12.45-7.227 26.915-11.379 42.37-11.379 15.446 0 29.897 4.157 42.342 11.379h15.228c-11.868-9.369-26.05-15.93-41.56-18.627 11.75-31.915 42.41-54.701 78.456-54.701 36.038 0 66.695 22.78 78.45 54.685-15.549 2.687-29.768 9.254-41.665 18.643h15.234c12.444-7.223 26.895-11.379 42.342-11.379 15.458 0 29.923 4.15 42.375 11.379h15.168c-2.038-1.608-4.12-3.163-6.29-4.599 6.147-18.02 23.188-30.936 43.323-30.936v-8.531c-23.153 0-42.966 14.575-50.763 35.028a92.617 92.617 0 00-9.451-4.4c9.433-24.024 32.808-40.999 60.214-40.999v-8.531c-31.048 0-57.627 19.419-68.255 46.748a92.304 92.304 0 00-10.217-2.39c11.733-31.962 42.41-54.724 78.472-54.724v-8.514c-6.655 0-13.145.715-19.403 2.06-13.95-19.049-34.939-32.618-59.124-36.835 11.693-32.02 42.41-54.906 78.527-54.91V15.9c-1.83 0-3.648.054-5.452.159a7.93 7.93 0 01-2.54-5.854c0-4.46 3.533-7.992 7.992-7.992V0H364.95c-2.232 2.816-3.58 6.36-3.58 10.206 0 2.46.551 4.806 1.531 6.912a91.58 91.58 0 00-4.56.864 93.974 93.974 0 00-7.33-8.784A26.82 26.82 0 01353.013 0h-9c-.202.669-.409 1.337-.572 2.021-.824-.698-1.686-1.351-2.534-2.021h-15.167a84.93 84.93 0 0123.65 20.4 91.578 91.578 0 00-11.203 4.472C324.993 9.862 305.766.296 284.318 0h-2.032c-21.42.294-40.627 9.832-53.826 24.806a91.568 91.568 0 00-11.208-4.456A84.906 84.906 0 01240.863 0h-15.195c-6.557 5.185-12.424 11.208-17.388 17.944a92.256 92.256 0 00-19.342-2.044c-6.67 0-13.173.715-19.442 2.066C164.53 11.22 158.66 5.19 152.098 0h-15.19a84.91 84.91 0 0123.633 20.373 91.592 91.592 0 00-11.203 4.472C136.144 9.849 116.928.295 95.491 0h-2.038C72.02.296 52.803 9.847 39.605 24.84a91.476 91.476 0 00-11.197-4.467A84.917 84.917 0 0152.041 0H36.862c-.817.646-1.65 1.272-2.445 1.944-.159-.659-.361-1.3-.556-1.944h-9.005a26.808 26.808 0 012.005 9.087 93.937 93.937 0 00-7.425 8.873 91.564 91.564 0 00-4.466-.842 16.337 16.337 0 001.536-6.912c0-3.845-1.348-7.39-3.58-10.206zm94.472 8.592c18.61 0 35.351 7.853 47.111 20.427a92.484 92.484 0 00-10.139 7.061c-9.478-9.472-22.55-15.35-36.972-15.35-14.416 0-27.486 5.87-36.967 15.334a92.338 92.338 0 00-10.14-7.056C59.13 16.44 75.867 8.592 94.472 8.592zm188.827 0c18.626 0 35.383 7.866 47.145 20.46a92.407 92.407 0 00-10.14 7.067c-9.48-9.493-22.564-15.388-37.005-15.388-14.398 0-27.45 5.857-36.928 15.3a92.47 92.47 0 00-10.15-7.056c11.762-12.55 28.49-20.383 47.078-20.383zm-94.361 15.823c36.121 0 66.843 22.834 78.532 54.878a92.382 92.382 0 00-10.227 2.357c-10.596-27.394-37.21-46.87-68.305-46.87-31.105 0-57.727 19.49-68.316 46.897A92.291 92.291 0 00110.4 79.31c11.685-32.052 42.41-54.894 78.538-54.894zm-94.466 4.93A43.579 43.579 0 01125 41.741a92.803 92.803 0 00-7.457 8.113c-5.932-5.896-14.082-9.561-23.071-9.561-8.98 0-17.127 3.66-23.06 9.544a92.652 92.652 0 00-7.463-8.107c7.876-7.666 18.635-12.387 30.523-12.387zm188.827 0c11.916 0 22.695 4.743 30.573 12.441a92.649 92.649 0 00-7.458 8.113c-5.935-5.922-14.103-9.605-23.115-9.605-8.957 0-17.08 3.642-23.01 9.5a92.817 92.817 0 00-7.469-8.107 43.594 43.594 0 0130.48-12.343zm-94.361 13.967c27.444 0 50.845 17.02 60.253 41.097a92.661 92.661 0 00-9.462 4.368c-7.78-20.488-27.613-35.095-50.791-35.095-23.195 0-43.04 14.628-50.808 35.139a92.67 92.67 0 00-9.462-4.379c9.4-24.094 32.813-41.13 60.27-41.13zm-94.466 5.6a24.062 24.062 0 0117.9 7.92 92.093 92.093 0 00-5.921 10.179c-2.24-4.367-6.777-7.397-11.98-7.397-5.196 0-9.737 3.022-11.984 7.38a91.892 91.892 0 00-5.91-10.178 24.088 24.088 0 0117.895-7.903zm188.827 0c7.15 0 13.535 3.083 17.95 7.981a91.95 91.95 0 00-5.921 10.217c-2.222-4.42-6.787-7.496-12.029-7.496-5.156 0-9.664 2.977-11.93 7.281a92.113 92.113 0 00-5.909-10.134 24.084 24.084 0 0117.84-7.848zm-94.361 13.302c20.152 0 37.205 12.937 43.339 30.98a93.737 93.737 0 00-8.9 6.636c-3.703-15.59-17.744-27.251-34.44-27.251-16.722 0-30.787 11.7-34.46 27.329a93.677 93.677 0 00-8.9-6.66c6.117-18.072 23.188-31.034 43.36-31.034zm-94.466 6.02c2.73 0 4.852 2.137 4.852 4.868 0 2.605-1.93 4.652-4.478 4.836-.125 0-.249-.004-.374-.004-.126 0-.25.004-.375.004-2.55-.184-4.494-2.231-4.494-4.836 0-2.73 2.138-4.869 4.869-4.869zm188.827 0c2.731 0 4.852 2.137 4.852 4.868 0 2.605-1.93 4.652-4.477 4.836-.125 0-.25-.004-.375-.004s-.25.004-.374.004c-2.548-.186-4.495-2.233-4.495-4.836 0-2.73 2.138-4.869 4.87-4.869zm-94.361 12.882c14.552 0 26.33 11.436 26.866 25.852a93.964 93.964 0 00-7.656 9.154 91.73 91.73 0 00-4.433-.826 16.327 16.327 0 001.729-7.309c0-9.067-7.44-16.506-16.506-16.506-9.067 0-16.507 7.44-16.507 16.506 0 2.618.619 5.102 1.719 7.309-1.52.245-3.028.529-4.522.848a93.922 93.922 0 00-7.562-9.066c.48-14.468 12.282-25.962 26.872-25.962zm-94.466 5.452c26.848 0 50.723 12.495 66.2 31.972a91.501 91.501 0 00-11.213 4.444c-13.407-15.314-33.073-25.01-54.987-25.01-21.916 0-41.587 9.7-55 25.016a91.494 91.494 0 00-11.196-4.45c15.476-19.476 39.348-31.972 66.196-31.972zm188.827 0c26.86 0 50.746 12.504 66.223 31.994a91.511 91.511 0 00-11.197 4.466c-13.408-15.338-33.091-25.054-55.026-25.054-21.895 0-41.55 9.68-54.96 24.972a91.535 91.535 0 00-11.213-4.434c15.476-19.46 39.338-31.944 66.173-31.944zm-94.361 13.428c4.459 0 7.991 3.532 7.991 7.991a7.92 7.92 0 01-3.007 6.257 93.19 93.19 0 00-4.984-.132c-1.672 0-3.335.049-4.985.137-1.837-1.451-3.007-3.7-3.007-6.262 0-4.459 3.533-7.992 7.992-7.992zm-94.466 6.598c18.67 0 35.461 7.903 47.227 20.549a92.418 92.418 0 00-10.15 7.044c-9.487-9.534-22.601-15.455-37.077-15.455-14.479 0-27.597 5.924-37.088 15.46a92.477 92.477 0 00-10.145-7.044c11.77-12.648 28.561-20.554 47.233-20.554zm188.827 0c18.692 0 35.504 7.92 47.272 20.593a92.486 92.486 0 00-10.145 7.055c-9.49-9.564-22.624-15.51-37.127-15.51-14.448 0-27.541 5.899-37.027 15.4a92.42 92.42 0 00-10.162-7.034c11.768-12.62 28.541-20.504 47.19-20.504zM94.472 127.346a43.582 43.582 0 0130.627 12.492 92.631 92.631 0 00-7.473 8.101c-5.939-5.944-14.123-9.644-23.154-9.644-9.034 0-17.223 3.703-23.165 9.65a92.755 92.755 0 00-7.474-8.102 43.603 43.603 0 0130.639-12.497zm188.827 0a43.58 43.58 0 0130.688 12.552 92.776 92.776 0 00-7.468 8.107c-5.943-5.982-14.155-9.71-23.22-9.71-8.998 0-17.156 3.673-23.093 9.578a92.734 92.734 0 00-7.48-8.09c7.881-7.697 18.659-12.437 30.573-12.437zM94.472 146.915c7.16 0 13.556 3.086 17.97 7.997a91.986 91.986 0 00-5.947 10.194c-2.223-4.416-6.784-7.49-12.023-7.49-5.24 0-9.813 3.073-12.04 7.49a92.087 92.087 0 00-5.948-10.189 24.092 24.092 0 0117.988-8.002zm188.827 0a24.063 24.063 0 0118.043 8.08 92.106 92.106 0 00-5.96 10.232c-2.199-4.48-6.796-7.611-12.083-7.611-5.192 0-9.73 3.017-11.979 7.37a91.979 91.979 0 00-5.932-10.151 24.09 24.09 0 0117.911-7.92zm-188.827 19.32c2.73 0 4.852 2.138 4.852 4.87 0 2.604-1.93 4.65-4.478 4.835-.125 0-.249-.004-.374-.004-.126 0-.25.004-.375.004-2.55-.184-4.494-2.231-4.494-4.836 0-2.73 2.138-4.869 4.869-4.869zm188.827 0c2.731 0 4.852 2.138 4.852 4.87 0 2.604-1.93 4.65-4.477 4.835-.125 0-.25-.004-.375-.004s-.25.004-.374.004c-2.548-.186-4.495-2.233-4.495-4.836 0-2.73 2.138-4.869 4.87-4.869zM0 170.78v8.537c11.258 0 20.829 6.86 24.845 16.633h9C29.43 181.419 15.94 170.779 0 170.779zm377.875 0c-15.94 0-29.436 10.64-33.85 25.17h9.006c4.015-9.775 13.585-16.633 24.844-16.633zM0 189.681v6.268h12.904C9.872 192.14 5.208 189.68 0 189.68zm377.875 0c-5.208 0-9.871 2.46-12.904 6.268h12.904z" stroke-width="9.005" paint-order="markers fill stroke"/></pattern><mask maskUnits="userSpaceOnUse" id="prefix__e"><path d="M578.859 6.903c0-31.406-25.497-56.903-56.903-56.903H198.045c-31.406 0-56.903 25.497-56.903 56.903v589.194c0 31.406 25.497 56.903 56.903 56.903h323.91c31.406 0 56.903-25.497 56.903-56.903z" fill="#fff" stroke-width="64" stroke-linecap="butt" stroke-linejoin="miter" transform="translate(-141 50)"/></mask></defs><g mask="url(#prefix__e)"><path d="M437.858 56.903C437.858 25.497 412.363 0 380.955 0H57.045C25.637 0 .14 25.497.14 56.903v589.194C.141 677.503 25.638 703 57.044 703h323.911c31.407 0 56.904-25.497 56.904-56.903z" fill="maroon"/><path d="M437.717 56.903C437.717 25.497 412.22 0 380.814 0H56.903C25.497 0 0 25.497 0 56.903v589.194C0 677.503 25.497 703 56.903 703h323.911c31.406 0 56.903-25.497 56.903-56.903z" transform="translate(0 1)" fill="url(#prefix__g)"/><g transform="translate(-141 50)" fill="url(#prefix__c)"><path d="M578.859 6.903c0-31.406-25.497-56.903-56.903-56.903H198.045c-31.406 0-56.903 25.497-56.903 56.903v589.194c0 31.406 25.497 56.903 56.903 56.903h323.91c31.406 0 56.903-25.497 56.903-56.903z" fill="none" stroke="#fff" stroke-width="48" stroke-linecap="butt" stroke-linejoin="miter"/></g></g><path d="M214.82 484.791c-1.948-4.643-2.319-9.922-1.746-24.852l.724-18.956-5.974 6.481c-7.364 7.99-18.914 13.777-37.324 18.703-7.748 2.065-15.488 4.214-17.2 4.76-2.756.881-3.396-.233-5.56-9.68-4.497-19.598-4.552-34.15-.186-47.913.547-1.717-4.401 2.513-10.995 9.414-12.307 12.884-18.276 16.692-24.728 15.78-2.728-.395-3.822-1.694-4.2-5.003-.662-5.776 8.896-15.227 25.143-24.869l11.504-6.827-9.479-.905c-10.729-1.02-23.936-7.103-39.315-18.079-5.367-3.826-10.554-6.961-11.525-6.961-2.801 0-2.2-1.346 5.243-11.784 8.408-11.78 20.906-23.328 30.561-28.235l7.06-3.59-17.204-.72c-17.6-.742-24.842-2.789-28.06-7.968-6.617-10.651 19.798-11.593 45.763-1.625 1.54.604 1.445-.603-.39-5.01-1.33-3.186-4.1-15.82-6.155-28.08-2.056-12.259-4.2-23.47-4.765-24.915-.861-2.204.431-2.803 7.943-3.743 14.045-1.763 34.962 0 44.45 3.848 9.029 3.61 9.042 3.462.649-7.563-13.904-18.26-16.779-33.167-6.397-33.167 5.496 0 15.603 15.496 20.262 31.062 2.311 7.718 3.868 8.43 5.368 2.455 1.692-6.74 6.304-12.113 20.144-23.457 7.122-5.839 15.469-12.979 18.548-15.868l5.598-5.254 3.272 3.567c10.085 10.99 20.038 31.563 21.84 45.14l1.06 8.002 5.08-11.684c2.793-6.428 6.417-13.972 8.051-16.761 7.108-12.14 17.913-14.262 17.913-3.518 0 5.741-3.358 12.468-11.433 22.894-2.517 3.249-4.731 6.788-4.92 7.864-.186 1.068-3.772 5.328-7.958 9.454-4.187 4.124-7.143 7.966-6.568 8.542.575.58 3.334-1.16 6.132-3.882 8.585-8.305 15.19-10.204 28.905-8.296 6.488.905 15.028 1.647 18.977 1.647h7.18l-1 8.512c-1.937 16.492-12.025 32.257-24.813 38.778l-5.937 3.03 3.946 3.945c4.705 4.706 6.838 3.954 15.28-5.39 9.47-10.482 18.663-31.334 23.696-53.748l.916-4.084-22.03-.951c-17.18-.743-23.459-.441-28.523 1.346-7.543 2.661-10.166 1.717-3.47-1.23 3.232-1.439 11.787-1.88 29.651-1.532 13.81.256 25.47.836 25.913 1.277.443.44-.782 6.954-2.72 14.473-3.845 14.916-12.321 34.12-18.816 42.634-3.49 4.576-3.655 5.212-1.077 4.13 21.935-9.2 40.164-12.65 44.41-8.404 3.382 3.383 2.19 8.885-2.438 11.26-5.444 2.795-18.115 5.28-33.727 6.617l-12.102 1.044 6.598 3.483c7.144 3.768 12.934 10.802 21.538 26.157 3.028 5.404 8.584 13.259 12.349 17.454l6.844 7.63-9.092 4.021c-14.384 6.36-26.615 8.911-39.583 8.257l-11.654-.58 6.02 4.745c19.939 15.71 27.559 25.841 24.183 32.148-3.917 7.317-13.667 1.833-26.115-14.716-4.918-6.533-9.135-11.879-9.37-11.879-.238 0 .266 3.007 1.117 6.685.898 3.878 1.096 14.269.471 24.77-.591 9.947-1.03 21.768-.976 26.27l.093 8.184-12.745-5.374c-16.67-7.031-33.942-16.989-45.196-26.06l-9.05-7.29 2.863 11.964c3.166 13.23 3.778 30.166 1.26 34.872-.947 1.764-3.283 3.043-5.585 3.043-3.085 0-4.502-1.3-6.428-5.9zm10.644.905c2.539-4.743.954-22.94-3.408-39.1-3.115-11.542-3.713-12.644-5.033-9.268-2.499 6.381-2.316 46.104.232 49.183 2.957 3.58 6.026 3.276 8.214-.812zm62.33-17.018c1.612-35.548 1.044-49.612-2.382-58.885-4.237-11.463-5.352-12.68-9.56-10.426l-3.272 1.764 3.497 6.648c3.093 5.885 3.496 9.013 3.496 27.099 0 13.77.659 21.601 2.02 23.984 2.599 4.546.968 4.6-12.584.418-17.868-5.518-35.4-19.149-41.746-32.46-2.028-4.255-3.2-5.132-5.785-4.34-4.8 1.461-4.802 1.508-.626 9.615 5.529 10.742 20.509 22.26 44.566 34.258 11.245 5.608 20.8 10.2 21.232 10.2.431 0 .946-3.536 1.144-7.861zm-119.244-3.97c8.137-2.182 17.778-5.282 21.424-6.897 13.279-5.873 25.769-20.938 25.869-31.204.046-5.105-3.96-4.364-6.247 1.16-3.953 9.547-14.156 18.165-27.532 23.264-6.92 2.636-15.172 5.276-18.337 5.868l-5.756 1.068-1.898-9.14c-2.634-12.687-1.3-31.021 2.954-40.584 2.34-5.263 2.933-8.263 1.845-9.352-1.975-1.972-5.156 1.718-9.963 11.596-2.968 6.096-3.444 9.702-3.424 25.952.02 17.436 2.386 32.246 5.15 32.237.614 0 7.776-1.787 15.913-3.968zM278 437.616c0-19.223-.39-22.41-3.515-28.7-2.585-5.205-5.088-7.732-9.452-9.551l-5.935-2.474.596 6.256c.538 5.648-.023 6.841-5.883 12.24-5.244 4.844-6.48 7.043-6.48 11.55 0 9.987 8.998 14.981 16.95 9.412 4.074-2.852 4.724-10.303 1.158-13.264-1.34-1.114-4.024-1.508-6.29-.952-4.44 1.114-5.421 3.85-1.26 3.511 3.047-.255 4.7 4.813 2.342 7.173-2.26 2.25-8.18-1.346-8.18-4.975 0-4.353 4.282-7.92 9.508-7.92 3.465 0 5.144 1.114 6.965 4.639 3.208 6.205 3.058 7.428-1.462 11.946-4.096 4.098-11.33 5.1-16.562 2.297-4.17-2.228-6.8-11.113-4.827-16.302 1.476-3.877 1.288-4.156-2.798-4.156-4.832 0-8.461-2.325-10.919-6.996-1.429-2.72-1.83-2.334-3.556 3.425-1.796 5.996-1.636 7.015 2.09 13.378 7.21 12.3 20.644 22.701 37.2 28.802 10.643 3.921 10.31 4.546 10.31-19.346zm-102.31 13.63c16.37-5.43 24.021-10.813 30.1-21.188l4.065-6.938-3.28-4.168c-1.805-2.297-3.28-5.135-3.28-6.316 0-1.485-.974-1.184-3.145.998-2.22 2.227-5.242 3.146-10.273 3.146-12.398 0-22.754 6.632-22.754 14.575 0 4.154 7.07 10.586 11.635 10.586 3.842 0 8.81-5.01 8.81-8.885 0-2.734-4.506-6.84-7.504-6.84-1.993 0-2.141.417-.673 1.879 2.545 2.545 2.39 7.022-.28 8.045-2.938 1.137-5.697-1.903-5.697-6.284 0-7.254 13.339-6.662 15.18.673 2.738 10.909-10.84 17.462-19.09 9.212-7.498-7.497-3.428-19.248 7.97-23.01 5.163-1.694 5.397-2.042 3.12-4.564-1.417-1.578-2.461-5.544-2.461-9.37 0-6.556-.047-6.614-3.496-4.2-1.923 1.346-5.02 2.448-6.883 2.448-5.732 0-10.633 13.621-10.754 29.88-.093 12.826 1.49 25.167 3.23 25.167.456 0 7.413-2.182 15.46-4.853zm146.838-14.357c.37-3.197-1.18-6.051-6.291-11.6-9.555-10.365-35.308-29.862-32.016-24.237 6.682 11.421 21.374 31.043 26.574 35.496 7.365 6.303 11.03 6.41 11.733.348zm-203.663-1.461c7.453-3.92 27.945-24.765 32.72-33.283 1.529-2.725 1.373-2.734-3.622-.232-18.402 9.407-39.031 25.583-39.031 30.61 0 4.926 3.874 6.04 9.933 2.854zm60.84-2.82c0-1.856-3.068-3.84-4.194-2.715-1.128 1.137.858 4.196 2.714 4.196a1.49 1.49 0 001.48-1.485zm80.209-3.24c0-.858-1.063-1.577-2.36-1.577-1.296 0-2.358.696-2.358 1.578 0 .858 1.06 1.578 2.359 1.578 1.297 0 2.359-.696 2.359-1.578zm-36.173-11.005c1.73-1.74 3.146-4.152 3.146-5.377 0-1.23.429-3.35.953-4.72.608-1.578.093-2.487-1.401-2.487-1.297 0-2.798 1.763-3.338 3.907-1.83 7.296-13.515 7.359-13.515 0 0-2.492-.884-3.982-2.359-3.982-3.769 0-2.813 7.554 1.501 11.867 4.676 4.676 10.762 4.964 15.013.72zm29.761-5.646c4.793-4.033 6.305-10.062 3.594-14.324-1.981-3.117-4.966 0-4.6 4.977.266 3.536-.641 5.096-4.076 7.017-4.263 2.383-4.553 2.32-8.31-1.995-2.345-2.697-4.83-4.115-6.253-3.567-2.098.812-2.098 1.415.019 5.511 3.972 7.683 12.153 8.679 19.626 2.39zm-57.354 1.531c3.813-1.461 7.66-9.5 5.03-10.51-1.123-.44-2.88.558-3.906 2.205-3.574 5.723-13.482 2.994-12.645-3.483.267-2.065-.07-4.648-.754-5.743-2.11-3.388-4.168-.464-4.168 5.901 0 9.001 8.193 14.793 16.443 11.628zm24.164-4.921c.427-3.01-.209-3.54-4.325-3.54-3.633 0-4.828.72-4.828 2.885 0 3.86 1.576 5.207 5.44 4.653 1.95-.279 3.408-1.857 3.713-3.998zm30.165-5.168c0-3.23-1.58-3.676-7.47-2.089-4.172 1.114-4.439 2.602-1.07 5.971 3.127 3.126 8.541.673 8.541-3.873zm-55.067.859c1.608-1.926 1.198-2.613-2.422-3.99-4.943-1.879-7.972 0-6.464 3.857 1.197 3.119 6.345 3.196 8.886.232zm49.004-5.417c24.467-9.263 36.068-27.799 33.862-54.111-2.253-26.878-20.341-45.73-49.325-51.41-24.855-4.871-56.004 9.416-64.725 29.685-11.481 26.693-.693 60.315 23.278 72.546 16.765 8.551 39.533 9.867 56.91 3.29zm-41.118-10.059c-23.215-5.416-32.265-18.371-31.223-44.697.49-12.35 1.125-14.951 5.333-21.762 3.835-6.207 6.888-8.81 15.453-13.18 9.958-5.082 11.692-5.451 25.889-5.507 13.513 0 16.096.418 23.08 4.12 16.083 8.548 23.052 20.793 23.052 40.513 0 18.856-5.543 29.549-19.162 36.96-6.601 3.595-10.557 4.537-20.955 5.001-7.093.325-16.68-.325-21.467-1.439zm15.727-7.356c0-4.323-.708-7.862-1.573-7.862-.866 0-1.573 3.54-1.573 7.862 0 4.326.707 7.867 1.573 7.867.865 0 1.573-3.541 1.573-7.867zm6.539.65c-.796-9.702-3.394-10.35-3.394-.835 0 5.912.562 8.124 1.95 7.66 1.231-.418 1.763-2.917 1.443-6.816zm-19.095 1.624c3.206-8.428 3.412-11.275.89-12.243-1.65-.626-3.182.464-4.637 3.326-4.133 8.126-4.492 11.034-1.457 11.823 1.55.394 3.012.812 3.25.905.239 0 1.116-1.625 1.954-3.82zm7.838-3.077c0-8.683-2.03-9.135-4.47-.998-2.379 7.939-2.357 8.073 1.325 8.073 2.68 0 3.146-1.044 3.146-7.08zm20.405 3.04c-3.874-10.187-7.844-13.535-7.802-6.576.047 7.282 1.812 10.616 5.628 10.616 3.333 0 3.553-.418 2.174-4.04zm7.602 1.114c1.628-1.044 1.352-2.502-1.334-7.052-1.866-3.163-4.384-5.75-5.596-5.75-2.799 0-2.77 1.415.185 8.46 2.485 5.945 3.35 6.5 6.754 4.342zm-42.472-8.052c1.792-4.307 2.67-8.196 1.954-8.637-.715-.44-3.956 2.135-7.2 5.725-5.56 6.154-5.733 6.65-3.016 8.637 4.268 3.12 4.715 2.81 8.262-5.725zm47.351-2.534c-8.083-8.342-10.295-6.755-4.434 3.179 2.851 4.831 3.709 5.346 6.458 3.875 3.058-1.647 2.986-1.88-2.023-7.054zm-54.29-1.532c3.3-3.947 5.619-7.56 5.152-8.026-.466-.464-4.056 1.833-7.976 5.11-5.48 4.582-6.731 6.437-5.412 8.026.944 1.137 1.833 2.065 1.977 2.065.14 0 2.96-3.23 6.26-7.18zm63.242 2.205c1.213-1.973-6.62-9.157-9.99-9.17-2.988-.012-2.387 1.74 2.26 6.592 4.651 4.854 6.037 5.318 7.73 2.578zm-67.253-6.426c3.509-2.81 6.416-5.996 6.46-7.077.117-2.555.342-2.601-9.998 1.972-8.008 3.541-8.731 4.251-7.218 7.078 2.248 4.2 3.295 4.01 10.756-1.973zm48.874-.324c13.787-7.131 12.293-38.138-2.127-44.164-11.37-4.75-31.26-.998-36.924 6.945-9.502 13.343-3.217 34.926 11.495 39.476 6.79 2.112 21.453.905 27.556-2.25zM211.51 352.99c-2.442-1.717-3.495-4.054-3.495-7.776 0-9.407 9.875-13.255 17.874-6.962 7.981 6.277 3.624 17.186-6.865 17.186-2.211 0-5.591-1.09-7.514-2.448zm13.854-1.996c3.019-2.446 3.317-3.55 2.018-7.472-1.273-3.843-2.493-4.68-7.41-5.093-3.237-.279-6.898.348-8.135 1.369-3.363 2.789-2.714 8.84 1.246 11.614 4.578 3.207 7.943 3.093 12.28-.418zm35.849 12.635c1.854-5.553 1.835-5.571-8.769-8.876-6.029-1.88-4.218 3.395 2.36 6.864 6.94 3.664 5.77 4.228-2.017.975-4.52-1.88-5.454-1.903-5.454-.232 0 2.432 9.718 8.792 11.188 7.321.531-.534 1.742-3.295 2.692-6.14zm-74.472-2.227c8.665-4.21 9.236-6.74 1.223-5.414-3.244.534-7.49.974-9.437.998-2.721.011-3.538.928-3.538 3.95 0 4.89 2.452 4.988 11.753.463zm-1.75-6.978c5.714-.79 7.297-1.648 7.297-3.931 0-2.42-1.218-2.933-6.948-2.933-8.974 0-11.925 1.206-11.925 4.887 0 3.28.922 3.436 11.577 1.972zm78.07-2.135c0-2.597-1.049-3.144-6.029-3.144-8.09 0-9.475 1.856-3.106 4.167 7.478 2.708 9.135 2.523 9.135-1.02zm0-8.06c0-2.902-.643-3.21-4.915-2.359-2.703.534-5.888.975-7.077.975-1.19 0-2.163 1.067-2.163 2.36 0 1.74 1.836 2.36 7.078 2.36 6.167 0 7.077-.418 7.077-3.342zm-70.773.233c0-.859-1.591-1.578-3.538-1.601-1.947-.012-6.193-.464-9.437-.998-4.803-.789-5.898-.51-5.898 1.601 0 2.089 1.762 2.564 9.437 2.564 5.242 0 9.436-.696 9.436-1.578zm.464-5.228c.539-1.392-2.032-3.05-7.813-5.015-7.398-2.515-8.816-2.61-10.044-.673-2.856 4.511-1.49 6.02 5.99 6.61 4.11.324 8.28.718 9.269.88.988.233 2.158-.649 2.598-1.81zm65.72.51c4.794 0 5.45-.928 3.186-4.497-1.13-1.787-2.299-1.787-7.053 0-3.134 1.137-5.699 3.056-5.699 4.272 0 1.37.947 1.857 2.488 1.253 1.37-.533 4.553-.951 7.078-.951zm-63.533-7.177c.722-2.181-13.618-10.802-15.225-9.157-3.303 3.386-2.004 5.732 4.71 8.505 7.328 3.028 9.68 3.174 10.515.65zm59.754.557c5.32-1.926 6.429-3.471 3.696-5.16-1.886-1.161-11.055 3.41-11.055 5.517 0 1.973 1.032 1.926 7.359-.348zm-3.742-5.388c2.768-1.416 5.338-2.833 5.712-3.17 1.076-.975-9.743-11.57-11.806-11.57-3.006 0-6.224 9.226-3.995 11.456 1.413 1.416 2.745.743 5.675-2.838 4.578-5.604 5.317-3.784.796 1.95-5.409 6.878-4.28 8.177 3.617 4.163zm-54.839-2.553c-8.555-10.247-9.014-10.609-11.157-8.83-3.246 2.695-2.584 4.145 3.795 8.322 7.758 5.08 11.389 5.33 7.362.51zm4.374-8.256c-3.707-7.63-4.577-8.136-8.753-5.082-2.511 1.833-2.269 2.534 3.056 8.755 7.55 8.818 10.76 6.748 5.697-3.673zm7.856-1.694c-1.729-4.664-3.502-6.957-5.384-6.957-3.602 0-3.535 1.833.346 9.45 2.058 4.03 3.926 5.877 5.384 5.318 1.9-.743 1.85-1.903-.346-7.811zm5.964-.673c0-6.815-.42-7.864-3.145-7.864-1.73 0-3.145.51-3.145 1.137 0 1.694 5.057 14.6 5.718 14.6.315 0 .573-3.538.573-7.864zm25.557 2.52c2.554-5.356 2.249-7.237-1.178-7.237-1.975 0-5.73 10.26-4.284 11.709 1.754 1.763 2.965.765 5.462-4.472zm-19.573-3.576c-.524-8.056-4.426-11.774-4.39-4.186.024 6.126 1.622 11.535 3.394 11.535.812 0 1.26-3.306.996-7.349zm6.598-.51c0-5.943-.577-7.867-2.359-7.867-1.733 0-2.359 1.81-2.359 6.818 0 3.747.471 7.286 1.049 7.864 2.558 2.555 3.67.487 3.67-6.815zm6.137 2.91c2.476-7.103 2.153-9.203-1.417-9.203-2.68 0-3.146 1.044-3.146 7.077 0 8.236 2.095 9.21 4.564 2.135zm92.681 84.34c5.478-1.3 13.393-3.824 17.59-5.63l7.631-3.283-6.623-8.133c-3.643-4.47-9.963-13.92-14.044-20.998-7.975-13.826-13.945-19.45-24.648-23.226-8.899-3.14-9.524-3.051-9.524 1.346 0 3.047 1.014 3.889 5.57 4.627 3.062.51 7.961 2.383 10.885 4.19 6.076 3.758 28.141 34.056 26.988 37.061-.42 1.091-4.73 3.472-9.58 5.286-9.612 3.597-29.347 4.456-40.896 1.787-11.852-2.75-8.815 1.903 4.171 6.395 10.2 3.52 19.358 3.69 32.48.604zm-174.543-2.478c2.724-.951 4.952-2.717 4.952-3.93 0-1.672-2.62-2.205-11.06-2.205-6.236 0-13.503-1.021-16.664-2.342-8.15-3.406-30.466-16.907-30.466-18.431 0-.72 4.463-5.767 9.919-11.222 10.23-10.23 26.634-19.903 33.75-19.903 2.864 0 3.605-.627 2.894-2.488-.524-1.369-.956-3.23-.956-4.135 0-2.764-12.596.023-23.015 5.094-9.788 4.759-26.683 20.852-32.294 30.755l-2.622 4.632 14.418 9.804c21.46 14.596 37.541 19.114 51.143 14.373zm22.33-.673c2.553-1.323 4.64-3.047 4.64-3.838 0-2.687-3.004-3.314-6.232-1.3-6.148 3.84-12.56-4.963-7.795-10.704 1.402-1.694 1.464-2.815.232-4.054-1.239-1.23-2.616-.232-4.96 3.604-4.272 7.008-4.117 8.634 1.341 14.092 5.281 5.282 6.435 5.481 12.781 2.205zm102.631-.789c2.228-1.74 4.483-4.548 5.012-6.212 1.006-3.17-3.012-12.619-5.365-12.619-2.044 0-3.362 4.477-1.631 5.546 2.487 1.532 1.7 6.37-1.51 9.275-2.468 2.228-3.64 2.395-6.46.882-2.305-1.23-3.968-1.323-5.023-.255-1.056 1.044-.093 2.385 2.921 4.014 5.938 3.216 7.262 3.15 12.057-.626zm55.032-7.479l7.545-3.379-8.993-13.03c-12.02-17.417-14.448-20.02-21.824-23.427-7.886-3.638-12.576-3.717-17.127-.278l-3.564 2.687 4.448 3.743c3.656 3.077 4.447 4.991 4.447 10.75 0 9.085 5.42 15.177 12.846 14.436 10.404-1.044 14.261-15.148 5.094-18.635-5.512-2.089-10.076.58-10.076 5.917 0 3.9.14 3.984 2.132 1.253 1.355-1.856 3.116-2.536 4.835-1.88 3.233 1.23 2.718 5.563-.938 7.864-3.857 2.43-7.602-1.392-7.602-7.74 0-6.305 4.206-9.22 11.115-7.702 8.05 1.763 10.332 11.22 4.498 18.635-4.75 6.038-14.329 5.85-20.164-.394-3.784-4.052-4.562-4.307-7.223-2.36-1.64 1.207-4.692 2.181-6.781 2.181-3.011 0-3.56.58-2.643 2.752.636 1.509 1.497 4.317 1.914 6.23 1.017 4.681 9.93 6.705 27.149 6.166 9.576-.301 15.508-1.369 20.913-3.796zm-159.874.418c.949-2.474-1.907-7.06-4.4-7.06-2.476 0-3.338 4.66-1.313 7.1 2.482 2.99 4.556 2.976 5.714 0zm101.839-.232c1.589-4.14-.683-5.797-3.925-2.861-1.645 1.485-2.99 3.304-2.99 4.035 0 2.395 5.931 1.392 6.915-1.184zm-121.066 0c1.369-.534 2.488-1.764 2.488-2.78 0-.998 1.796-4.47 3.988-7.695l3.989-5.87h-4.067c-5.639 0-12.924-4.055-14.133-7.865-2.19-6.903-16.424-9.77-20.97-4.22-3.899 4.756-2.05 16.024 2.887 17.59 7.462 2.37 13.401-3.355 10.607-10.223l-1.598-3.934-1.038 3.934c-.659 2.499-2.157 3.93-4.112 3.93-4.398 0-4.99-6.362-.8-8.604 2.706-1.439 3.909-1.09 7.173 2.181 2.157 2.159 3.92 5.015 3.92 6.354 0 3.961-5.945 8.72-10.894 8.72-5.032 0-11.123-6.105-11.123-11.147 0-10.252 11.457-17.253 20.403-12.466 2.416 1.3 3.167.766 4.531-3.142.9-2.58 3.43-5.509 5.623-6.509 3.686-1.67 3.782-1.972 1.262-3.887-4.249-3.223-9.76-2.555-20.397 2.476-10.57 5-29.81 22.207-28.039 25.073 1.509 2.441 21.919 14.336 28.829 16.803 6.212 2.228 17.306 2.88 21.472 1.276zm137.213-15.522c4.105-2.875 5.723-8.806 3.79-13.888-1.557-4.096-10.369-8.303-11.969-5.713-1.26 2.042.566 4.625 3.267 4.625 3.063 0 4.695 7.33 2.278 10.24-1.067 1.3-3.624 2.339-5.68 2.339-2.276 0-3.74.928-3.74 2.36 0 3.102 7.642 3.128 12.053 0zm22.548-3.314c0-1.369-.84-2.204-1.868-1.88-2.916.975-3.4 4.359-.622 4.359a2.493 2.493 0 002.49-2.49zm-180.078-3.8c-.76-1.23-1.666-1.323-2.714-.28-.865.86-1.06 2.405-.431 3.421.76 1.23 1.665 1.323 2.714.279.865-.859 1.058-2.404.431-3.42zm29.574 1.67c-.538-2.065-2.417-3.216-5.75-3.541-4.518-.44-4.951-.951-4.951-5.982 0-4.511.638-5.597 3.539-6.008 2.32-.325 3.538-1.578 3.538-3.645 0-2.53-.689-2.934-3.538-2.066-5.727 1.74-9.044 5.595-9.044 10.494 0 8.513 4.903 13.45 13.615 13.704 2.604 0 3.205-.603 2.591-2.956zm123.602-.673c2.176-2.622.666-7.275-2.362-7.275-1.204 0-2.2.534-2.211 1.184-.013.65-.448 2.77-.97 4.715-1.09 4.07 2.558 4.978 5.544 1.37zm-125.677-6.882c-.047-4.31-2.56-7.238-5.322-6.178-2.52.975-3.442 5.908-1.469 7.879 2.168 2.158 6.815.997 6.792-1.694zm131.639-14.824c2.002-1.88 3.64-5.096 3.64-7.147 0-5.376-6.934-11.772-12.098-11.16-5.359.627-6.829 4.428-1.717 4.428 7.95 0 10.645 9.654 3.591 12.868-2.162.974-3.932 2.385-3.932 3.111 0 2.63 6.96 1.23 10.515-2.111zm-133.188-5.636c0-1.532-1.46-3.68-3.243-4.794-5.182-3.237-3.545-10.15 2.85-12.032 6.437-1.903 6.606-3.998.323-3.998-5.63 0-12.51 6.07-12.51 11.038 0 3.764 2.76 9.621 5.346 11.347 3.2 2.135 7.235 1.254 7.235-1.554zm128.442.278c1.209-3.151-3.557-8.224-5.706-6.075-2.11 2.112-.209 8.554 2.529 8.554 1.223 0 2.653-1.114 3.177-2.479zm-126.153-11.282c.914-3.028.487-3.539-2.97-3.539-4.406 0-5.58 4.121-2.15 7.551 2.162 2.158 3.593 1.044 5.12-4.012zm176.861 2.576c12.396-1.926 19.014-5.163 19.014-9.27 0-4.233-6.591-5.623-16.667-3.51-8.998 1.88-29.947 10.211-34.608 13.752-2.653 2.019-1.587 2.181 9.598 1.439 6.92-.464 17.118-1.532 22.663-2.407zm-202.206-2.757c4.029-1.578-26.665-11.278-39.112-12.35-7.63-.65-9.908-.301-11.666 1.81-1.893 2.274-1.772 3.045.903 5.718 1.698 1.694 6.24 3.706 10.093 4.46 8.568 1.67 35.803 1.926 39.782.348zm9.621-3.249c.499-.812-.812-3.996-2.913-7.089-3.03-4.467-13.534-40.89-13.534-46.932 0-1.624 11.743-1.369 23.591.534 10.342 1.67 25.295 7.549 30.007 11.811 2.27 2.066 2.8 2.042 4.544 0 2.655-3.195 1.334-5.996-5.178-10.962-10.357-7.901-21.936-10.925-42.217-11.022-10.091 0-18.716.278-19.166.72-1.026 1.02 6.046 43.89 8.436 51.131 2.773 8.4 13.694 16.28 16.43 11.853zm146.33-3.817c8.926-4.172 17.047-11.8 21.178-19.882 3.134-6.133 6.8-21.583 5.586-23.546-1.267-2.042-37.24-3.66-41.878-1.88-2.258.86-6.118 3.625-8.578 6.12-3.705 3.759-4.485 5.912-4.544 12.547-.07 7.03.25 7.836 2.577 6.594 4.556-2.436 9.908-1.554 15.437 2.513 6.487 4.788 10.844 4.969 16.302.673 7.086-5.571 4.228-18.758-4.067-18.758-7.655 0-12.025 7.446-7.202 12.268 2.94 2.942 4.035 2.25 3.216-2.042-.606-3.163-.116-3.93 2.484-3.93 3.975 0 5.502 2.204 4.25 6.158-1.917 6.038-9.847 5.214-13.381-1.393-2.137-3.993.659-10.154 5.642-12.426 5.522-2.515 11.342.302 14.054 6.783 3.948 9.451-2.29 18.172-12.998 18.172-4.587 0-5.154.487-5.154 4.37 0 2.4-1.103 5.94-2.449 7.861-3.25 4.639-.728 4.583 9.526-.232zm-11.525-.464c4.092-3.706 3.635-10.939-.984-15.559-4.31-4.307-6.726-4.699-12.567-2.042-3.068 1.392-3.594 2.297-2.27 3.899 1.242 1.485 2.551 1.647 4.67.51 3.82-2.042 10.119 3.657 8.465 7.662-3.45 8.352-2.528 10.25 2.685 5.535zm-122.55-3.323c6.519-.766 6.855-1.323 3.49-5.778-2.625-3.471-3.106-12.784-.736-14.248 2.88-1.787 1.622-8.743-2.288-12.653-4.77-4.769-9.75-4.92-14.518-.441-6.743 6.335-3.513 14.612 5.308 13.602 3.374-.394 4.53-1.438 4.882-4.439.327-2.784.046-3.313-.975-1.81-1.79 2.643-7.35 1.74-7.35-1.183 0-2.984 4.53-5.579 7.65-4.381 5.156 1.972 1.733 15.24-3.934 15.24-2.271 0-8.243-3.33-9.59-5.346-4.134-6.19 2.452-16.67 10.477-16.67 6.069 0 13.483 6.043 13.483 10.987 0 2.753.488 3.017 3.043 1.648 4.26-2.274 8.92-2.042 14.335.766 4.332 2.25 4.64 2.204 4.64-.51 0-8.587-19.256-17.254-44.429-20.001-10.868-1.183-10.639-2.158-5.05 21.228 4.593 19.207 8.849 27.688 12.978 25.871 1.478-.65 5.342-1.508 8.586-1.88zm117.278-3.89c-.276-1.925-1.74-3.758-3.255-4.046-3.154-.603-3.682 2.863-.865 5.683 2.929 2.928 4.672 2.228 4.12-1.648zm-106.211-.015c.392-1.09-.341-3.177-1.63-4.655-3.05-3.506-1.415-10.143 2.832-11.491 1.912-.604 4.835 0 7.2 1.578 3.921 2.566 8.447 2.274 8.447-.557 0-1.717-9.659-6.519-13.092-6.519-3.743 0-12.072 7.797-12.072 11.299 0 3.409 4.696 12.292 6.499 12.292.606 0 1.422-.882 1.814-1.973zm6.755-7.614c2.88-3.184 2.884-3.355.093-5.395-5.05-3.694-11.053 1.81-7.131 6.523 2.418 2.914 3.547 2.733 7.04-1.137zm86.408-6.26c1.682-5.3-.548-10.675-5.485-13.227-6.388-3.305-8.426-3.026-13.262 1.81-3.103 3.102-3.682 4.52-2.216 5.425 1.148.72 3.176.232 4.819-1.346 4.07-3.685 11.302-.975 11.628 4.344.367 5.99.45 6.242 2.014 6.242.808 0 1.933-1.462 2.502-3.255zm-5.937-2.632c.93-2.794-5.834-5.815-8.03-3.587-1.35 1.369-1.032 2.39 1.286 4.1 3.337 2.462 5.816 2.274 6.745-.51zm38.378-1.183c0-.813-.761-1.74-1.692-2.066-.93-.301-1.69.627-1.69 2.066 0 1.438.76 2.369 1.69 2.065.931-.302 1.692-1.23 1.692-2.065zm-102.463-3.11c0-2.471 1.512-4.887 4.14-6.609 4.052-2.657 4.214-2.622 7.53 1.532 3.953 4.959 5.63 5.376 5.63 1.392 0-8.289-12.728-12.732-18.873-6.588-3.02 3.02-4.283 10.92-2.098 13.106 2.133 2.135 3.67.929 3.67-2.847zm9.564.743c2.45 0 1.594-4.76-1.037-5.77-3.038-1.16-7.759 3.199-6.196 5.728.622.998 2.179 1.439 3.46.928 1.281-.487 2.979-.905 3.773-.905zm-50.455-4.024c0-1.346-.708-2.019-1.573-1.485-.866.534-1.574 1.647-1.574 2.453 0 .812.708 1.485 1.574 1.485.865 0 1.573-1.114 1.573-2.453zm84.927-.789c0-8.358-7.589-13.7-15.302-10.767-5.047 1.926-6.66 4.063-6.692 8.906-.023 4.567 3.493 4.571 5.5.007 2.81-6.386 11.776-4.752 11.776 2.158 0 1.624 1.06 2.952 2.359 2.952 1.336 0 2.359-1.416 2.359-3.25zm-6.291-.58c0-3.11-2.56-4.423-6.305-3.235-4.98 1.578-3.849 5.502 1.587 5.502 3.06 0 4.718-.789 4.718-2.274zm16.304-15.682c-.116-5.509-1.44-13.807-2.944-18.443-2.932-9.039-10.093-23.372-11.677-23.372-1.65 0-27.976 27.335-29.819 30.957-2.367 4.658-2.271 16.225.14 16.225 1.034 0 3.864 1.903 6.29 4.224 3.364 3.223 4.412 3.624 4.412 1.694 0-3.28 7.346-9.06 11.513-9.06 5.177 0 10.505-6.121 10.505-12.07 0-9.684-10.713-15.124-17.57-8.916-6.066 5.49-.867 15.522 6.982 13.468l3.363-.882-3.465-1.555c-3.876-1.74-4.65-6.564-1.26-7.866 3.23-1.23 7.664 2.604 6.997 6.063-.315 1.648-2.435 4.033-4.708 5.307-3.704 2.089-4.56 2.042-8.245-.37-4.865-3.19-5.62-10.933-1.51-15.474 3.058-3.38 12.563-3.8 16.6-.743 6.087 4.625 6.751 15.675 1.242 20.662-2.692 2.434-2.65 2.713.95 6.314 2.163 2.158 3.767 5.62 3.767 8.124v4.363l4.325-4.326c3.874-3.875 4.303-5.372 4.116-14.338zm10.933 2.33c2.676-13.61-4.39-35.362-17.026-52.42l-5.548-7.486-10.588 8.825c-30.227 25.193-31.932 27.124-33.987 38.497-1.153 6.386 1.487 15.621 4.466 15.621 1.169 0 2.393-2.933 2.965-7.105 1.42-10.352 3.943-14.143 19.873-29.853 13.896-13.705 14.431-14.055 16.805-11.011 7.578 9.723 15.323 34.38 14.408 45.879-.524 6.592-.355 6.92 3.355 6.48 3.252-.394 4.137-1.624 5.277-7.427zm24.67-21.864c4.826-7.087 7.857-13.238 7.857-15.953 0-9.018-7.945-6.4-15.133 4.984-4.167 6.602-14.773 32.691-14.717 36.204.047 2.903 12.772-11.702 21.993-25.235zm-97.581 6.428c-4.594-14.062-13.782-31.58-17.65-33.65-4.54-2.43-8.089 1.602-6.757 7.658 1.722 7.846 25.986 41.52 27.354 37.968.288-.743-1.04-6.138-2.947-11.976zm43.315 1.183c-.534-.858-1.99-1.578-3.238-1.578-1.246 0-2.267.696-2.267 1.578 0 .859 1.457 1.578 3.238 1.578 1.782 0 2.8-.696 2.267-1.578z" fill="#ffd5d5" stroke-width=".043"/></svg>