<?xml version="1.0" encoding="UTF-8" standalone="no"?>
<!DOCTYPE svg PUBLIC "-//W3C//DTD SVG 1.1//EN" "http://www.w3.org/Graphics/SVG/1.1/DTD/svg11.dtd">
<svg width="100%" height="100%" viewBox="0 0 438 703" version="1.1" xmlns="http://www.w3.org/2000/svg" xmlns:xlink="http://www.w3.org/1999/xlink" xml:space="preserve" xmlns:serif="http://www.serif.com/" style="fill-rule:evenodd;clip-rule:evenodd;stroke-linecap:round;stroke-linejoin:round;stroke-miterlimit:1.5;">
    <g transform="matrix(1,0,0,1,6.82121e-13,1)">
        <path d="M437.717,56.903C437.717,25.497 412.22,0 380.814,0L56.903,0C25.497,0 0,25.497 0,56.903L0,646.097C0,677.503 25.497,703 56.903,703L380.814,703C412.22,703 437.717,677.503 437.717,646.097L437.717,56.903Z" style="fill:rgb(235,235,235);"/>
    </g>
    <g transform="matrix(1,0,0,1,6.82121e-13,1)">
        <path d="M31.327,53.254C32.47,41.266 45.664,30.161 59,30L379,29C390.477,30.149 404.706,36.872 407,52" style="fill:none;stroke:black;stroke-width:6.06px;"/>
    </g>
    <g transform="matrix(1,0,0,-1,6.82121e-13,706.391)">
        <path d="M31.327,53.254C32.47,41.266 45.664,30.161 59,30L379,29C390.477,30.149 404.706,36.872 407,52" style="fill:none;stroke:black;stroke-width:6.06px;"/>
    </g>
    
    <g transform="matrix(1,0,0,1,6.82121e-13,1)">
        <path d="M30,164L31.327,538" style="fill:none;stroke:black;stroke-width:6.06px;"/>
    </g>
    <g transform="matrix(1,0,0,1,377.175,1)">
        <path d="M30,164L31.327,538" style="fill:none;stroke:black;stroke-width:6.06px;"/>
    </g>
</svg>
